<?xml version="1.0" encoding="UTF-8"?>
<svg width="400" height="400" viewBox="0 0 400 400" fill="none" xmlns="http://www.w3.org/2000/svg">
  <!-- Background Circle -->
  <circle cx="200" cy="200" r="200" fill="#F3F4F6"/>
  
  <!-- Modern Suit -->
  <path d="M140 220 L200 400 L260 220 L200 260 Z" fill="#1A237E"/>
  <path d="M160 230 L200 400 L240 230 L200 260 Z" fill="#283593"/>
  
  <!-- Crisp White Shirt -->
  <path d="M175 220 L200 270 L225 220 L200 235 Z" fill="#FFFFFF"/>
  
  <!-- Elegant Tie -->
  <path d="M195 220 L200 270 L205 220 L200 235 Z" fill="#B71C1C"/>
  
  <!-- Head with better skin tone -->
  <circle cx="200" cy="160" r="60" fill="#FFE0B2"/>
  
  <!-- Modern Hairstyle -->
  <path d="M140 160 Q170 120 200 115 Q230 120 260 160 Q230 175 200 180 Q170 175 140 160 Z" fill="#3E2723"/>
  <path d="M150 160 Q170 130 200 125 Q230 130 250 160" stroke="#3E2723" stroke-width="8" fill="none"/>
  
  <!-- Refined Face Features -->
  <ellipse cx="180" cy="160" rx="4" ry="6" fill="#3E2723"/>
  <ellipse cx="220" cy="160" rx="4" ry="6" fill="#3E2723"/>
  <path d="M185 185 Q200 195 215 185" stroke="#3E2723" stroke-width="2.5" fill="none"/>
  
  <!-- Suit Details -->
  <path d="M180 230 L190 400 L210 400 L220 230" fill="#283593" opacity="0.5"/>
  <path d="M190 235 L200 270 L210 235" fill="#FFFFFF" opacity="0.3"/>
</svg>